<svg width="25" height="29" viewBox="0 0 25 29" fill="none" xmlns="http://www.w3.org/2000/svg">
<path d="M12.3796 0.550049C9.19816 0.553688 6.14803 1.81914 3.89838 4.06879C1.64873 6.31844 0.383278 9.36857 0.379639 12.55C0.379639 15.55 1.94964 19.4325 4.58089 22.925C7.22839 26.4438 10.1434 28.55 12.3796 28.55C14.6159 28.55 17.5309 26.4488 20.1784 22.925C22.8096 19.425 24.3796 15.55 24.3796 12.55C24.376 9.36857 23.1105 6.31844 20.8609 4.06879C18.6113 1.81914 15.5611 0.553688 12.3796 0.550049ZM18.5809 21.7275C16.4096 24.6113 13.9184 26.55 12.3796 26.55C10.8409 26.55 8.34964 24.6113 6.17839 21.7275C3.83589 18.6125 2.37964 15.0963 2.37964 12.55C2.37964 9.89788 3.43321 7.35434 5.30857 5.47898C7.18393 3.60362 9.72747 2.55005 12.3796 2.55005C15.0318 2.55005 17.5753 3.60362 19.4507 5.47898C21.3261 7.35434 22.3796 9.89788 22.3796 12.55C22.3796 15.0963 20.9234 18.6125 18.5809 21.7275ZM11.3796 15.55C11.3796 14.224 10.8529 12.9522 9.91517 12.0145C8.97749 11.0768 7.70572 10.55 6.37964 10.55C5.84921 10.55 5.3405 10.7608 4.96543 11.1358C4.59035 11.5109 4.37964 12.0196 4.37964 12.55C4.37964 13.8761 4.90642 15.1479 5.8441 16.0856C6.78179 17.0233 8.05356 17.55 9.37964 17.55C9.91007 17.55 10.4188 17.3393 10.7939 16.9643C11.1689 16.5892 11.3796 16.0805 11.3796 15.55ZM6.37964 12.55C7.17529 12.55 7.93835 12.8661 8.50096 13.4287C9.06357 13.9913 9.37964 14.7544 9.37964 15.55C8.58399 15.55 7.82093 15.234 7.25832 14.6714C6.69571 14.1088 6.37964 13.3457 6.37964 12.55ZM18.3796 10.55C17.0536 10.55 15.7818 11.0768 14.8441 12.0145C13.9064 12.9522 13.3796 14.224 13.3796 15.55C13.3796 16.0805 13.5904 16.5892 13.9654 16.9643C14.3405 17.3393 14.8492 17.55 15.3796 17.55C16.0362 17.55 16.6864 17.4207 17.2931 17.1694C17.8997 16.9182 18.4509 16.5499 18.9152 16.0856C19.3795 15.6213 19.7478 15.0701 19.999 14.4635C20.2503 13.8568 20.3796 13.2067 20.3796 12.55C20.3796 12.0196 20.1689 11.5109 19.7939 11.1358C19.4188 10.7608 18.9101 10.55 18.3796 10.55ZM15.3796 15.55C15.3796 14.7544 15.6957 13.9913 16.2583 13.4287C16.8209 12.8661 17.584 12.55 18.3796 12.55C18.3796 13.3457 18.0636 14.1088 17.501 14.6714C16.9384 15.234 16.1753 15.55 15.3796 15.55ZM15.3796 21.55C15.3796 21.8153 15.2743 22.0696 15.0867 22.2572C14.8992 22.4447 14.6449 22.55 14.3796 22.55H10.3796C10.1144 22.55 9.86007 22.4447 9.67253 22.2572C9.485 22.0696 9.37964 21.8153 9.37964 21.55C9.37964 21.2848 9.485 21.0305 9.67253 20.8429C9.86007 20.6554 10.1144 20.55 10.3796 20.55H14.3796C14.6449 20.55 14.8992 20.6554 15.0867 20.8429C15.2743 21.0305 15.3796 21.2848 15.3796 21.55Z" fill="white"/>
</svg>
