<svg width="32" height="19" viewBox="0 0 32 19" fill="none" xmlns="http://www.w3.org/2000/svg">
<path d="M30.3796 6.55006H26.7934L21.3796 1.13631C21.1946 0.949784 20.9743 0.801901 20.7316 0.701258C20.4889 0.600615 20.2286 0.54922 19.9659 0.550059H5.91464C5.58613 0.550667 5.26283 0.632186 4.97331 0.787411C4.68379 0.942637 4.43696 1.16679 4.25464 1.44006L0.547139 6.99506C0.438204 7.15968 0.379965 7.35265 0.379639 7.55006L0.379639 13.5501C0.379639 14.0805 0.590352 14.5892 0.965425 14.9643C1.3405 15.3393 1.84921 15.5501 2.37964 15.5501H4.50464C4.72494 16.4105 5.22534 17.1731 5.92695 17.7177C6.62856 18.2623 7.49147 18.5579 8.37964 18.5579C9.26781 18.5579 10.1307 18.2623 10.8323 17.7177C11.5339 17.1731 12.0343 16.4105 12.2546 15.5501H20.5046C20.7249 16.4105 21.2253 17.1731 21.9269 17.7177C22.6286 18.2623 23.4915 18.5579 24.3796 18.5579C25.2678 18.5579 26.1307 18.2623 26.8323 17.7177C27.5339 17.1731 28.0343 16.4105 28.2546 15.5501H30.3796C30.9101 15.5501 31.4188 15.3393 31.7939 14.9643C32.1689 14.5892 32.3796 14.0805 32.3796 13.5501V8.55006C32.3796 8.01963 32.1689 7.51092 31.7939 7.13585C31.4188 6.76077 30.9101 6.55006 30.3796 6.55006ZM5.91464 2.55006H19.9659L23.9659 6.55006H3.25464L5.91464 2.55006ZM8.37964 16.5501C7.98408 16.5501 7.5974 16.4328 7.2685 16.213C6.9396 15.9932 6.68325 15.6809 6.53188 15.3154C6.3805 14.95 6.3409 14.5478 6.41807 14.1599C6.49524 13.7719 6.68572 13.4156 6.96543 13.1358C7.24513 12.8561 7.6015 12.6657 7.98946 12.5885C8.37742 12.5113 8.77955 12.5509 9.14501 12.7023C9.51046 12.8537 9.82281 13.11 10.0426 13.4389C10.2623 13.7678 10.3796 14.1545 10.3796 14.5501C10.3796 15.0805 10.1689 15.5892 9.79385 15.9643C9.41878 16.3393 8.91007 16.5501 8.37964 16.5501ZM24.3796 16.5501C23.9841 16.5501 23.5974 16.4328 23.2685 16.213C22.9396 15.9932 22.6833 15.6809 22.5319 15.3154C22.3805 14.95 22.3409 14.5478 22.4181 14.1599C22.4952 13.7719 22.6857 13.4156 22.9654 13.1358C23.2451 12.8561 23.6015 12.6657 23.9895 12.5885C24.3774 12.5113 24.7796 12.5509 25.145 12.7023C25.5105 12.8537 25.8228 13.11 26.0426 13.4389C26.2623 13.7678 26.3796 14.1545 26.3796 14.5501C26.3796 15.0805 26.1689 15.5892 25.7939 15.9643C25.4188 16.3393 24.9101 16.5501 24.3796 16.5501ZM30.3796 13.5501H28.2546C28.0343 12.6896 27.5339 11.927 26.8323 11.3824C26.1307 10.8378 25.2678 10.5422 24.3796 10.5422C23.4915 10.5422 22.6286 10.8378 21.9269 11.3824C21.2253 11.927 20.7249 12.6896 20.5046 13.5501H12.2546C12.0343 12.6896 11.5339 11.927 10.8323 11.3824C10.1307 10.8378 9.26781 10.5422 8.37964 10.5422C7.49147 10.5422 6.62856 10.8378 5.92695 11.3824C5.22534 11.927 4.72494 12.6896 4.50464 13.5501H2.37964V8.55006H30.3796V13.5501Z" fill="white"/>
</svg>
