<svg width="33" height="32" viewBox="0 0 33 32" fill="none" xmlns="http://www.w3.org/2000/svg">
<rect x="0.333252" width="32" height="32" rx="6" fill="#F9FAFD" fill-opacity="0.2"/>
<path fill-rule="evenodd" clip-rule="evenodd" d="M16.3333 21C15.2287 21 14.3333 21.8954 14.3333 23C14.3333 24.1046 15.2287 25 16.3333 25C17.4378 25 18.3333 24.1046 18.3333 23C18.3333 21.8954 17.4378 21 16.3333 21Z" fill="white"/>
<path fill-rule="evenodd" clip-rule="evenodd" d="M16.3333 14C15.2287 14 14.3333 14.8954 14.3333 16C14.3333 17.1046 15.2287 18 16.3333 18C17.4378 18 18.3333 17.1046 18.3333 16C18.3333 14.8954 17.4378 14 16.3333 14Z" fill="white"/>
<path fill-rule="evenodd" clip-rule="evenodd" d="M16.3333 7C15.2287 7 14.3333 7.89543 14.3333 9C14.3333 10.1046 15.2287 11 16.3333 11C17.4378 11 18.3333 10.1046 18.3333 9C18.3333 7.89543 17.4378 7 16.3333 7Z" fill="white"/>
</svg>
