<svg width="26" height="26" viewBox="0 0 26 26" fill="none" xmlns="http://www.w3.org/2000/svg">
<path d="M10.3509 19.7925C10.3021 19.9863 9.08338 24.55 2.37963 24.55C2.11441 24.55 1.86006 24.4447 1.67252 24.2571C1.48498 24.0696 1.37963 23.8153 1.37963 23.55C1.37963 16.8463 5.94338 15.6275 6.13713 15.5788C6.39455 15.5145 6.66698 15.5551 6.89449 15.6916C7.12199 15.8282 7.28594 16.0495 7.35025 16.3069C7.41457 16.5643 7.37398 16.8368 7.23743 17.0643C7.10088 17.2918 6.87955 17.4557 6.62213 17.52C6.50963 17.5513 3.81963 18.3375 3.42713 22.5025C7.59213 22.11 8.37963 19.425 8.41213 19.3C8.47843 19.0429 8.64415 18.8227 8.87283 18.6878C9.1015 18.5529 9.37441 18.5144 9.6315 18.5807C9.88859 18.647 10.1088 18.8127 10.2437 19.0414C10.3786 19.27 10.4172 19.5429 10.3509 19.8V19.7925ZM21.9759 11.3675L21.3796 11.9638V19.255C21.3811 19.5187 21.3302 19.78 21.2297 20.0238C21.1293 20.2676 20.9814 20.4889 20.7946 20.675L16.5046 24.9625C16.3196 25.1489 16.0996 25.2967 15.8571 25.3975C15.6147 25.4984 15.3547 25.5502 15.0921 25.55C14.8754 25.55 14.6602 25.5149 14.4546 25.4463C14.1017 25.3296 13.7885 25.1165 13.5504 24.8311C13.3123 24.5457 13.1587 24.1994 13.1071 23.8313L12.4359 19.02L6.90963 13.4938L2.10088 12.8225C1.7323 12.7708 1.38547 12.6173 1.09938 12.3793C0.813299 12.1412 0.599315 11.828 0.481505 11.475C0.363695 11.122 0.346732 10.7431 0.432523 10.3809C0.518315 10.0187 0.703458 9.68771 0.967126 9.42504L5.25463 5.13504C5.44072 4.94827 5.6621 4.80036 5.90588 4.69993C6.14966 4.5995 6.41097 4.54855 6.67463 4.55004H13.9659L14.5621 3.95379C17.8971 0.620036 21.9159 0.476286 23.4884 0.570036C23.976 0.599667 24.4359 0.806724 24.7813 1.15214C25.1267 1.49756 25.3337 1.95744 25.3634 2.44504C25.4546 4.01379 25.3109 8.03254 21.9771 11.3675H21.9759ZM2.37963 10.8425L7.02338 11.49L11.9659 6.55004H6.67463L2.37963 10.8425ZM8.79463 12.55L13.3796 17.135L20.5609 9.95379C21.5287 8.99253 22.2795 7.83526 22.7629 6.55974C23.2462 5.28422 23.451 3.92001 23.3634 2.55879C22.0029 2.47442 20.64 2.68132 19.3658 3.16568C18.0917 3.65004 16.9355 4.40071 15.9746 5.36754L8.79463 12.55ZM19.3796 13.9638L14.4384 18.905L15.0884 23.55L19.3796 19.255V13.9638Z" fill="white"/>
</svg>
